# xmcd
#
# Track frame offsets:
#	150
#	21375
#	43067
#	62140
#	86975
#	105340
#	125395
#	144327
#	159645
#	175575
#	193717
#	216045
#
# Disc length: 3157 seconds
#
# Revision: 3
# Processed by: cddbd v1.5.2PL0 Copyright (c) Steve Scherf et al.
# Submitted via: audiograbber 1.83.01
#
DISCID=a50c530c
DTITLE=Peacock Palace - Adding wings
DYEAR=1991
DGENRE=Rock
TTITLE0=Yeah! I can ride
TTITLE1=Like a snake
TTITLE2=Stop love
TTITLE3=River on fire
TTITLE4=Henry's song
TTITLE5=Fighters
TTITLE6=Venus and Mars
TTITLE7=The waltz
TTITLE8=My suitcase
TTITLE9=Hallelujah!
TTITLE10=Blue mountains
TTITLE11=Thrown roses
EXTD=
EXTT0=
EXTT1=
EXTT2=
EXTT3=
EXTT4=
EXTT5=
EXTT6=
EXTT7=
EXTT8=
EXTT9=
EXTT10=
EXTT11=
PLAYORDER=
